<?xml version="1.0" encoding="utf-8"?>
<!-- Generator: Adobe Illustrator 21.0.2, SVG Export Plug-In . SVG Version: 6.00 Build 0)  -->
<svg version="1.1" id="Layer_1" xmlns="http://www.w3.org/2000/svg" xmlns:xlink="http://www.w3.org/1999/xlink" x="0px" y="0px"
	 viewBox="0 0 141.7 60" style="enable-background:new 0 0 141.7 60;" xml:space="preserve">
<style type="text/css">
	.st0{fill:#00D95A;}
	.st1{fill:#2EBD59;}
	.st2{fill:none;}
	.st3{font-family:'Helvetica-Bold';}
	.st4{font-size:36px;}
</style>
<g>
	<g>
		<path class="st0" d="M704.2,50.6h-0.1c-0.7,2.9-1.5,5.8-2.4,8.8l-4.8,14h14.6l-4.8-14C705.7,56.3,704.9,53.4,704.2,50.6z
			 M667.6,49.6c-2.7,0-4.8,0.2-5.9,0.5V69c1.4,0.4,3.1,0.5,5.2,0.5c7.6,0,12.2-3.7,12.2-10.4C679.1,52.7,674.6,49.6,667.6,49.6z
			 M710.1,5.8c-36.8,0-66.7,29.8-66.7,66.7c0,36.8,29.8,66.7,66.7,66.7s66.7-29.8,66.7-66.7C776.8,35.6,746.9,5.8,710.1,5.8z
			 M666.8,74.6c-1.9,0-3.6-0.1-5-0.4v19.4h-6.3v-48c3-0.5,7-0.9,12-0.9c6.2,0,10.7,1.4,13.6,4c2.7,2.3,4.2,5.8,4.2,10.2
			c0,4.4-1.3,7.8-3.7,10.4C678.3,72.8,672.9,74.6,666.8,74.6z M718,93.6l-5.2-15.3h-17.2l-5,15.3h-6.5L700.5,45h7.6l16.6,48.5H718z
			 M756.6,50.4h-14.8v43.2h-6.3V50.4h-14.8V45h35.9V50.4z"/>
	</g>
</g>
<circle class="st1" cx="30.7" cy="30.6" r="26.1"/>
<rect x="35.7" y="16.8" class="st2" width="106" height="43.2"/>
<text transform="matrix(1 0 0 1 60.712 42.6509)" class="st1 st3 st4">Pat</text>
</svg>
