<?xml version="1.0" encoding="utf-8"?>
<!-- Generator: Adobe Illustrator 21.0.2, SVG Export Plug-In . SVG Version: 6.00 Build 0)  -->
<svg version="1.1" id="Layer_1" xmlns="http://www.w3.org/2000/svg" xmlns:xlink="http://www.w3.org/1999/xlink" x="0px" y="0px"
	 viewBox="0 0 158.7 150.7" style="enable-background:new 0 0 158.7 150.7;" xml:space="preserve">
<style type="text/css">
	.st0{fill:#00D95A;}
</style>
<g>
	<g>
		<path class="st0" d="M38.2,55c-2.2,0-3.7,0.2-4.5,0.4v14.3c0.9,0.2,2.1,0.3,3.7,0.3c5.8,0,9.4-3,9.4-7.9
			C46.7,57.6,43.6,55,38.2,55z M78.4,55.2h-0.1c-0.7,2.9-1.4,6.6-2.2,9.4l-2.9,10.3h10.7l-3-10.3C80,61.7,79.1,58.1,78.4,55.2z
			 M78.1,7.8c-36.8,0-66.7,29.8-66.7,66.7c0,36.8,29.8,66.7,66.7,66.7s66.7-29.8,66.7-66.7C144.8,37.6,114.9,7.8,78.1,7.8z
			 M37.4,78.4c-1.4,0-2.7-0.1-3.7-0.2v17.4H22.8V47.7c3.4-0.6,8.1-1,14.8-1c6.8,0,11.6,1.3,14.8,3.9c3.1,2.4,5.2,6.5,5.2,11.2
			s-1.6,8.8-4.5,11.5C49.4,76.8,43.9,78.4,37.4,78.4z M89.2,95.6l-3.7-12.5H71.6l-3.5,12.5H56.7L71.6,47H86l15,48.5H89.2z
			 M121.9,56.3v39.3h-11V56.3h-13V47h37.3v9.2H121.9z"/>
	</g>
</g>
</svg>
