<?xml version="1.0" encoding="utf-8"?>
<!-- Generator: Adobe Illustrator 21.0.2, SVG Export Plug-In . SVG Version: 6.00 Build 0)  -->
<svg version="1.1" id="Layer_1" xmlns="http://www.w3.org/2000/svg" xmlns:xlink="http://www.w3.org/1999/xlink" x="0px" y="0px"
	 viewBox="0 0 161.3 131.6" style="enable-background:new 0 0 161.3 131.6;" xml:space="preserve">
<style type="text/css">
	.st0{fill:#00D95A;}
	.st1{fill:#2EBD59;}
</style>
<g>
	<g>
		<path class="st0" d="M323.2-70.8h-0.1c-0.7,2.9-1.5,5.8-2.4,8.8l-4.8,14h14.6l-4.8-14C324.7-65.1,323.9-68,323.2-70.8z
			 M286.6-71.7c-2.7,0-4.8,0.2-5.9,0.5v18.9c1.4,0.4,3.1,0.5,5.2,0.5c7.6,0,12.2-3.7,12.2-10.4C298.1-68.6,293.6-71.7,286.6-71.7z
			 M329.1-115.6c-36.8,0-66.7,29.8-66.7,66.7c0,36.8,29.8,66.7,66.7,66.7s66.7-29.8,66.7-66.7C395.8-85.7,365.9-115.6,329.1-115.6z
			 M285.8-46.8c-1.9,0-3.6-0.1-5-0.4v19.4h-6.3v-48c3-0.5,7-0.9,12-0.9c6.2,0,10.7,1.4,13.6,4c2.7,2.3,4.2,5.8,4.2,10.2
			c0,4.4-1.3,7.8-3.7,10.4C297.3-48.6,291.9-46.8,285.8-46.8z M337-27.8l-5.2-15.3h-17.2l-5,15.3h-6.5l16.5-48.5h7.6l16.6,48.5H337z
			 M375.6-71h-14.8v43.2h-6.3V-71h-14.8v-5.3h35.9V-71z"/>
	</g>
</g>
<g>
	<g>
		<path class="st1" d="M84.5,83.1h-0.1c-0.7,2.9-1.5,5.8-2.4,8.8l-4.8,14h14.6L87,92C85.9,88.8,85.2,85.9,84.5,83.1z M59.4,91.7
			c0-6.4-4.5-9.5-11.4-9.5c-2.7,0-4.8,0.2-5.9,0.5v18.9c1.4,0.4,3.1,0.5,5.2,0.5C54.8,102,59.4,98.4,59.4,91.7z M128.4,82.9h-6.3
			v43.2h-6.3V82.9H101v-5.3h23.8L84.6,17.7L45.3,77.2c0.8,0,1.6,0,2.5,0c6.2,0,10.7,1.4,13.6,4c2.7,2.3,4.2,5.8,4.2,10.2
			c0,4.4-1.3,7.8-3.7,10.4c-3.3,3.5-8.7,5.3-14.8,5.3c-1.9,0-3.6-0.1-5-0.4v19.4h-6.3V91.6L8.9,132.3l152.3-0.5L128.4,82.9z
			 M98.3,126.1l-5.2-15.3H75.9l-5,15.3h-6.5l16.5-48.5h7.6l16.6,48.5H98.3z"/>
	</g>
</g>
</svg>
